
<svg xmlns="http://www.w3.org/2000/svg" version="1.1" xmlns:xlink="http://www.w3.org/1999/xlink" preserveAspectRatio="none" x="0px" y="0px" width="200px" height="200px" viewBox="0 0 200 200">
<defs>
<g id="Layer0_0_FILL">
<path fill="#014CFF" stroke="none" d="
M 59.5 96.35
L 45.1 81.95 29.65 97.4 51.8 119.55
Q 54.95 122.75 59.5 122.75 64 122.75 67.25 119.55
L 75 111.8 59.5 96.35
M 90.45 96.35
Q 100.95 85.85 111.45 75.4
L 111.65 75.2
Q 111.7 75.1 111.75 75.05
L 112.1 74.7 96.65 59.25 75.15 80.75 90.45 96.35 Z"/>

<path fill="#4DB2FF" stroke="none" d="
M 75.15 80.75
L 59.5 96.35 75 111.8 90.45 96.35 75.15 80.75 Z"/>

<path fill="#67D3FF" stroke="none" d="
M 111.45 75.4
Q 100.95 85.85 90.45 96.35
L 75 111.8 82.75 119.55
Q 85.95 122.75 90.45 122.75 94.95 122.75 98.2 119.55
L 121.55 96.25 136.85 111.85
Q 147.35 101.35 157.85 90.9 158 90.7 158.15 90.55
L 158.5 90.2 127.6 59.25 112.1 74.7 111.75 75.05
Q 111.7 75.1 111.65 75.2
L 111.45 75.4 Z"/>
</g>
</defs>

<g transform="matrix( 1, 0, 0, 1, 0,0) ">
<use xlink:href="#Layer0_0_FILL"/>
</g>
</svg>
